<?xml version="1.0" encoding="utf-8"?>
<!-- Generator: Adobe Illustrator 23.0.3, SVG Export Plug-In . SVG Version: 6.00 Build 0)  -->
<svg version="1.1" id="Layer_1" xmlns="http://www.w3.org/2000/svg" xmlns:xlink="http://www.w3.org/1999/xlink" x="0px" y="0px"
	 viewBox="0 0 22 27" style="enable-background:new 0 0 22 27;" xml:space="preserve">
<style type="text/css">
	.st0{fill:none;stroke:#FFFFFF;stroke-width:0.65;stroke-miterlimit:10;}
</style>
<title>candidate</title>
<path class="st0" d="M1,0.5C0.7,0.5,0.5,0.7,0.5,1v25c0,0.3,0.2,0.5,0.5,0.5h16c0.1,0,0.3-0.1,0.4-0.1l4-4c0.1-0.1,0.2-0.2,0.1-0.4
	V1c0-0.3-0.2-0.5-0.5-0.5H1z M1.5,1.5h19v20H17c-0.3,0-0.5,0.2-0.5,0.5v3.5h-15V1.5z M4.2,3.5L3.5,4.2L4.3,5L3.5,5.8l0.7,0.7L5,5.7
	l0.8,0.8l0.7-0.7L5.7,5l0.8-0.8L5.8,3.5L5,4.3L4.2,3.5z M8.5,3.5v1h10v-1H8.5z M8.5,5.5v1h10v-1H8.5z M8.5,7.5v1h4v-1H8.5z
	 M4.2,10.5l-0.7,0.7L4.3,12l-0.8,0.8l0.7,0.7L5,12.7l0.8,0.8l0.7-0.7L5.7,12l0.8-0.8l-0.7-0.7L5,11.3L4.2,10.5z M8.5,10.5v1h10v-1
	H8.5z M8.5,12.5v1h10v-1H8.5z M8.5,14.5v1h6v-1H8.5z M4.2,17.5l-0.7,0.7L4.3,19l-0.8,0.8l0.7,0.7L5,19.7l0.8,0.8l0.7-0.7L5.7,19
	l0.8-0.8l-0.7-0.7L5,18.3L4.2,17.5z M8.5,17.5v1h10v-1H8.5z M8.5,19.5v1h10v-1H8.5z M8.5,21.5v1h2v-1H8.5z M17.5,22.5h2.3l-2.3,2.3
	V22.5z"/>
</svg>
