<svg id="SvgjsSvg1011" xmlns="http://www.w3.org/2000/svg" viewBox="0 0 219.82 219.88"><title>download</title><g id="SvgjsG1013"><path d="M169.17,202.2,155,216.5V155a11,11,0,0,0-22,0V216.5l-14.19-14.3a11,11,0,0,0-15.62,15.62l33,33a11,11,0,0,0,3.63,2.31,10.31,10.31,0,0,0,8.36,0,10.91,10.91,0,0,0,3.63-2.31l33-33a11,11,0,0,0-15.62-15.62ZM214.6,80.42a77,77,0,0,0-147,20.8A44,44,0,0,0,78,188a11,11,0,1,0,0-22,22,22,0,0,1,0-44,11,11,0,0,0,11-11A55,55,0,0,1,196,93.29a11,11,0,0,0,8.58,7.38,33,33,0,0,1,2.64,64.24,11,11,0,1,0,5.5,21.34A55,55,0,0,0,214.6,80.42Z" transform="translate(-33.88 -34.13)"/></g></svg>