<?xml version="1.0" encoding="utf-8"?>
<!-- Generator: Adobe Illustrator 23.0.3, SVG Export Plug-In . SVG Version: 6.00 Build 0)  -->
<svg version="1.1" id="Layer_1" xmlns="http://www.w3.org/2000/svg" xmlns:xlink="http://www.w3.org/1999/xlink" x="0px" y="0px"
	 viewBox="0 0 18 18" style="enable-background:new 0 0 18 18;" xml:space="preserve">
<style type="text/css">
	.st0{fill:none;stroke:#FFFFFF;stroke-width:0.8;stroke-linecap:round;stroke-linejoin:round;}
</style>
<title>call</title>
<g id="Forward_Call">
	<g id="_Group_">
		<polygon id="_Path_" class="st0" points="17.5,4.5 13.5,1.5 13.5,3.5 9.5,3.5 9.5,5.5 13.5,5.5 13.5,7.5 		"/>
		<g id="_Group_2">
			<path id="_Path_2" class="st0" d="M4.3,8.1c1.2,2.5,3.2,4.5,5.7,5.7l2.2-1.7c0.3-0.3,0.7-0.4,1-0.2c1.1,0.4,2.2,0.5,3.4,0.5
				c0.5,0,0.9,0.4,0.9,0.9v3.3c0,0.5-0.4,0.9-0.9,0.9c-8.9,0-16.1-7.1-16.1-16l0,0c0-0.5,0.4-0.9,0.9-0.9h3.3c0.5,0,0.9,0.4,0.9,0.9
				c0,1.1,0.2,2.3,0.5,3.4c0.1,0.4,0,0.7-0.2,1L4.3,8.1z"/>
		</g>
	</g>
</g>
</svg>
