<svg id="Pencil" xmlns="http://www.w3.org/2000/svg" viewBox="0 0 22.04 21.9"><title>pencil</title><path d="M17.3,8.1a.48.48,0,0,0-.7,0L7.1,17.6a.48.48,0,0,0,0,.7l.1.1.8.4v1.3l-2.4.7L3.2,18.4,3.9,16H5.2l.4.8a1.38,1.38,0,0,0,.4.3H6a1,1,0,0,0,.3-.1l9.5-9.5a.48.48,0,0,0,0-.7h0L14,5c-.1-.1-.2-.1-.4-.2h0a.76.76,0,0,0-.4.2L3.2,15.1h0c-.1.1-.1.1-.1.2l-.9,3L1,22.3a.49.49,0,0,0,.3.6h.3l4-1.1,3-.9h.2L19.1,10.7a.48.48,0,0,0,0-.7h0Z" transform="translate(-0.97 -1)"/><path d="M22.4,4.6l-3-3a1.93,1.93,0,0,0-2.8,0h0L14.8,3.4a.48.48,0,0,0,0,.7h0l5.1,5.1a.48.48,0,0,0,.7,0h0l1.9-1.8a2,2,0,0,0-.1-2.8Z" transform="translate(-0.97 -1)"/></svg>