<svg id="Layer_1" data-name="Layer 1" xmlns="http://www.w3.org/2000/svg" xmlns:xlink="http://www.w3.org/1999/xlink" viewBox="0 0 442.37 270.92"><defs><style>.nodeFill{fill:none;}.nodeFill-2,.nodeFill-4{fill:#679e63;}.nodeFill-3{fill:#333;}.nodeFill-3,.nodeFill-4,.nodeFill-5{fill-rule:evenodd;}.nodeFill-5{fill:url(#linear-gradient);}.nodeFill-6{clip-path:url(#clip-path);}.nodeFill-7{fill:url(#linear-gradient-2);}.nodeFill-8{fill:url(#linear-gradient-3);}.nodeFill-9{fill:url(#linear-gradient-4);}.nodeFill0{fill:url(#linear-gradient-5);}.nodeFill1{fill:url(#linear-gradient-6);}.nodeFill2{fill:url(#linear-gradient-7);}</style><linearGradient id="linear-gradient" x1="258.69" y1="27.3" x2="220.63" y2="-50.36" gradientTransform="matrix(1, 0, 0, -1, -78.31, 107.98)" gradientUnits="userSpaceOnUse"><stop offset="0" stop-color="#3f873f"/><stop offset="0.33" stop-color="#3f8b3d"/><stop offset="0.64" stop-color="#3e9637"/><stop offset="0.93" stop-color="#3da92e"/><stop offset="1" stop-color="#3dae2b"/></linearGradient><clipPath id="clip-path" transform="translate(0 0)"><path class="nodeFill" d="M165.81,62.59a5.09,5.09,0,0,0-5.09,0L118.59,86.9A5.09,5.09,0,0,0,116,91.31V140a5.07,5.07,0,0,0,2.55,4.4l42.1,24.34a5.09,5.09,0,0,0,5.09,0l42.13-24.34a5.09,5.09,0,0,0,2.54-4.4V91.31a5.09,5.09,0,0,0-2.55-4.41Z"/></clipPath><linearGradient id="linear-gradient-2" x1="235.16" y1="-13.35" x2="341.96" y2="65.56" gradientTransform="matrix(1, 0, 0, -1, -78.31, 107.98)" gradientUnits="userSpaceOnUse"><stop offset="0.14" stop-color="#3f873f"/><stop offset="0.4" stop-color="#529f44"/><stop offset="0.71" stop-color="#63b649"/><stop offset="0.91" stop-color="#6abf4b"/></linearGradient><linearGradient id="linear-gradient-3" x1="114.56" y1="218.18" x2="211.97" y2="218.18" gradientTransform="matrix(1, 0, 0, -1, 0, 272)" gradientUnits="userSpaceOnUse"><stop offset="0.09" stop-color="#6abf4b"/><stop offset="0.29" stop-color="#63b649"/><stop offset="0.6" stop-color="#529f44"/><stop offset="0.86" stop-color="#3f873f"/></linearGradient><linearGradient id="linear-gradient-4" x1="192.86" y1="-7.61" x2="290.28" y2="-7.61" gradientTransform="matrix(1, 0, 0, -1, -78.31, 107.98)" xlink:href="#linear-gradient-3"/><linearGradient id="linear-gradient-5" x1="114.56" y1="128.56" x2="211.97" y2="128.56" xlink:href="#linear-gradient-3"/><linearGradient id="linear-gradient-6" x1="192.86" y1="-48.02" x2="290.28" y2="-48.02" gradientTransform="matrix(1, 0, 0, -1, -78.31, 107.98)" xlink:href="#linear-gradient-3"/><linearGradient id="linear-gradient-7" x1="304.47" y1="29.59" x2="244.39" y2="-92.98" xlink:href="#linear-gradient"/></defs><title>nodejs</title><path class="nodeFill-2" d="M218.69,270.92a8.43,8.43,0,0,1-4.19-1.12l-13.34-7.89c-2-1.11-1-1.51-.36-1.74a26.45,26.45,0,0,0,6-2.74,1,1,0,0,1,1,.08L218,263.59a1.3,1.3,0,0,0,1.24,0l40-23.06a1.26,1.26,0,0,0,.61-1.08v-46.1a1.27,1.27,0,0,0-.62-1.1l-39.93-23a1.23,1.23,0,0,0-1.23,0l-39.93,23a1.28,1.28,0,0,0-.63,1.1v46.1a1.23,1.23,0,0,0,.63,1.07l10.94,6.32c5.94,3,9.58-.53,9.58-4V197.28a1.14,1.14,0,0,1,1.15-1.15h5.07a1.14,1.14,0,0,1,1.16,1.14h0V242.8c0,7.93-4.31,12.47-11.83,12.47-2.31,0-4.12,0-9.2-2.5l-10.48-6a8.45,8.45,0,0,1-4.19-7.29v-46.1a8.43,8.43,0,0,1,4.19-7.28L214.45,163a8.76,8.76,0,0,1,8.4,0l40,23.09a8.43,8.43,0,0,1,4.19,7.28v46.1a8.48,8.48,0,0,1-4.19,7.29l-40,23.06A8.45,8.45,0,0,1,218.69,270.92Z" transform="translate(0 0)"/><path class="nodeFill-2" d="M231,239.16c-17.48,0-21.14-8-21.14-14.75a1.14,1.14,0,0,1,1.13-1.15h5.19a1.15,1.15,0,0,1,1.15,1c.78,5.26,3.1,7.92,13.67,7.92,8.42,0,12-1.91,12-6.37,0-2.58-1-4.49-14.09-5.77C218,219,211.2,216.54,211.2,207.8c0-8.06,6.79-12.87,18.18-12.87,12.8,0,19.13,4.44,19.93,14a1.15,1.15,0,0,1-1.15,1.25H243a1.14,1.14,0,0,1-1.12-.9c-1.25-5.53-4.27-7.3-12.48-7.3-9.19,0-10.26,3.2-10.26,5.6,0,2.9,1.26,3.75,13.67,5.39s18.11,3.92,18.11,12.55S243.69,239.16,231,239.16Z" transform="translate(0 0)"/><path class="nodeFill-2" d="M288.59,190.81a7.7,7.7,0,1,1-7.7-7.7A7.7,7.7,0,0,1,288.59,190.81Zm-14.16,0a6.46,6.46,0,1,0,6.48-6.44h0a6.46,6.46,0,0,0-6.44,6.42Zm3.57-4.3h3c1,0,3,0,3,2.28a2,2,0,0,1-1.63,2.12c1.18.08,1.26.86,1.42,2a8.86,8.86,0,0,0,.45,2.28h-1.83c0-.41-.33-2.61-.33-2.73-.12-.49-.29-.73-.9-.73h-1.49v3.46H278Zm1.63,3.79H281a1.15,1.15,0,0,0,1.3-1,1.62,1.62,0,0,0,0-.22c0-1.18-.82-1.18-1.27-1.18h-1.38Z" transform="translate(0 0)"/><path class="nodeFill-3" d="M94.93,90.55a5.11,5.11,0,0,0-2.56-4.45L50,61.73a5.16,5.16,0,0,0-2.33-.68h-.44a5.2,5.2,0,0,0-2.34.68L2.56,86.1A5.14,5.14,0,0,0,0,90.55l.09,65.63a2.51,2.51,0,0,0,1.28,2.21,2.46,2.46,0,0,0,2.54,0L29.08,144a5.17,5.17,0,0,0,2.56-4.44V108.87a5.1,5.1,0,0,1,2.55-4.42l10.72-6.18a5.15,5.15,0,0,1,2.57-.68,5,5,0,0,1,2.54.68l10.72,6.18a5.1,5.1,0,0,1,2.55,4.42v30.67A5.17,5.17,0,0,0,65.86,144L91,158.39a2.5,2.5,0,0,0,2.56,0,2.55,2.55,0,0,0,1.27-2.21Z" transform="translate(0 0)"/><path class="nodeFill-3" d="M298.69.32a2.56,2.56,0,0,0-3.48,1,2.54,2.54,0,0,0-.32,1.23v65a1.82,1.82,0,0,1-.9,1.56,1.79,1.79,0,0,1-1.79,0L281.63,63a5.12,5.12,0,0,0-5.11,0L234.15,87.43a5.09,5.09,0,0,0-2.56,4.43v48.92a5.12,5.12,0,0,0,2.56,4.43l42.37,24.47a5.12,5.12,0,0,0,5.11,0L324,145.21a5.15,5.15,0,0,0,2.56-4.43V18.86a5.11,5.11,0,0,0-2.63-4.47Zm-3.93,124.4a1.27,1.27,0,0,1-.64,1.11l-14.55,8.39a1.32,1.32,0,0,1-1.28,0l-14.54-8.39a1.27,1.27,0,0,1-.64-1.11v-16.8a1.28,1.28,0,0,1,.63-1.1l14.55-8.41a1.27,1.27,0,0,1,1.28,0l14.55,8.41a1.29,1.29,0,0,1,.64,1.1Z" transform="translate(0 0)"/><path class="nodeFill-3" d="M439.82,107.48a5.1,5.1,0,0,0,2.55-4.42V91.21a5.12,5.12,0,0,0-2.55-4.43L397.69,62.34a5.16,5.16,0,0,0-5.13,0L350.21,86.8a5.09,5.09,0,0,0-2.56,4.43v48.9a5.12,5.12,0,0,0,2.58,4.44l42.1,24a5.12,5.12,0,0,0,5,0l25.46-14.15a2.56,2.56,0,0,0,0-4.46L380.17,125.5a2.55,2.55,0,0,1-1.29-2.22V108a2.55,2.55,0,0,1,1.28-2.21l13.27-7.65a2.53,2.53,0,0,1,2.55,0l13.28,7.65a2.55,2.55,0,0,1,1.28,2.21v12a2.55,2.55,0,0,0,3.84,2.21Z" transform="translate(0 0)"/><path class="nodeFill-4" d="M394.53,105.19a1,1,0,0,1,1,0l8.16,4.69a1,1,0,0,1,.5.86v9.38a1,1,0,0,1-.5.85l-8.13,4.7a1,1,0,0,1-1,0l-8.12-4.7a1,1,0,0,1-.49-.85v-9.38a1,1,0,0,1,.49-.86Z" transform="translate(0 0)"/><path class="nodeFill-5" d="M165.81,62.59a5.09,5.09,0,0,0-5.09,0L118.59,86.9A5.09,5.09,0,0,0,116,91.31V140a5.07,5.07,0,0,0,2.55,4.4l42.1,24.34a5.09,5.09,0,0,0,5.09,0l42.13-24.34a5.09,5.09,0,0,0,2.54-4.4V91.31a5.09,5.09,0,0,0-2.55-4.41Z" transform="translate(0 0)"/><g class="nodeFill-6"><path class="nodeFill" d="M160.63,62.59,118.41,86.9a5.26,5.26,0,0,0-2.72,4.41V140a4.91,4.91,0,0,0,1.31,3.23l47.44-81.15A5.17,5.17,0,0,0,160.63,62.59Z" transform="translate(0 0)"/><path class="nodeFill" d="M164.69,169.21a5.07,5.07,0,0,0,1.18-.49l42.18-24.34a5.19,5.19,0,0,0,2.64-4.4V91.31a5,5,0,0,0-1.54-3.54Z" transform="translate(0 0)"/><path class="nodeFill-7" d="M208,86.9,165.77,62.59a4.93,4.93,0,0,0-1.33-.53L117,143.21a5.91,5.91,0,0,0,1.42,1.17l42.33,24.34a5.14,5.14,0,0,0,3.93.49l44.47-81.44A6,6,0,0,0,208,86.9Z" transform="translate(0 0)"/><path class="nodeFill" d="M210.69,140V91.31A5.23,5.23,0,0,0,208,86.9L165.77,62.59a4.8,4.8,0,0,0-1.56-.57l46.32,79.12A4.57,4.57,0,0,0,210.69,140Z" transform="translate(0 0)"/><path class="nodeFill" d="M118.41,86.9a5.26,5.26,0,0,0-2.72,4.41V140a5.28,5.28,0,0,0,2.73,4.4l42.33,24.34a5.18,5.18,0,0,0,3.25.63L118.69,86.76Z" transform="translate(0 0)"/><polygon class="nodeFill-8" points="159.32 53.65 158.74 53.98 159.51 53.98 159.32 53.65"/><path class="nodeFill-9" d="M208,144.38a5.34,5.34,0,0,0,2.49-3.24L164.21,62a5.14,5.14,0,0,0-3.58.57l-42,24.17L164,169.31a5.13,5.13,0,0,0,1.86-.63Z" transform="translate(0 0)"/><polygon class="nodeFill0" points="211.97 143.6 211.69 143.13 211.69 143.76 211.97 143.6"/><path class="nodeFill1" d="M208,144.38l-42.18,24.34a5.13,5.13,0,0,1-1.86.63l.84,1.53,46.85-27.12v-.64l-1.16-2A5.31,5.31,0,0,1,208,144.38Z" transform="translate(0 0)"/><path class="nodeFill2" d="M208,144.38l-42.18,24.34a5.13,5.13,0,0,1-1.86.63l.84,1.53,46.85-27.12v-.64l-1.16-2A5.31,5.31,0,0,1,208,144.38Z" transform="translate(0 0)"/></g></svg>