<svg id="Layer_1" data-name="Layer 1" xmlns="http://www.w3.org/2000/svg" viewBox="0 0 16 16"><title>link</title><path d="M12.17,0A3.84,3.84,0,0,0,9.46,1.12l-3,3A5.36,5.36,0,0,1,7.17,4,5.11,5.11,0,0,1,9,4.39l1.86-1.85a1.83,1.83,0,0,1,2.58,2.58L10.12,8.46a1.86,1.86,0,0,1-2.58,0L6.12,9.88a3.84,3.84,0,0,0,5.42,0l3.34-3.34A3.83,3.83,0,0,0,12.17,0Z" transform="translate(0 0)"/><path d="M7,11.63,5.12,13.47a1.83,1.83,0,0,1-2.59-2.59L5.88,7.54a1.86,1.86,0,0,1,2.58,0L9.88,6.12a3.93,3.93,0,0,0-5.42,0L1.12,9.46a3.83,3.83,0,0,0,5.42,5.42l2.94-2.94a4.76,4.76,0,0,1-.65.06A5,5,0,0,1,7,11.63Z" transform="translate(0 0)"/></svg>