<svg id="svg2169" xmlns="http://www.w3.org/2000/svg" xmlns:xlink="http://www.w3.org/1999/xlink" viewBox="0 0 110.42 109.85"><defs><style>.pythonFill-1{fill:url(#linear-gradient);}.pythonFill-2{fill:url(#linear-gradient-2);}</style><linearGradient id="linear-gradient" x1="55.29" y1="34.67" x2="109.89" y2="-20.11" gradientTransform="matrix(1, 0, 0, -1, -44.94, 44.53)" gradientUnits="userSpaceOnUse"><stop offset="0" stop-color="#387eb8"/><stop offset="1" stop-color="#366994"/></linearGradient><linearGradient id="linear-gradient-2" x1="88.87" y1="-0.2" x2="147.51" y2="-56.38" gradientTransform="matrix(1, 0, 0, -1, -44.94, 44.53)" gradientUnits="userSpaceOnUse"><stop offset="0" stop-color="#ffe052"/><stop offset="1" stop-color="#ffc331"/></linearGradient></defs><title>python</title><g id="layer1"><g id="g1894"><path id="path8615" class="pythonFill-1" d="M54.81,0c-28,0-26.28,12.16-26.28,12.16l0,12.59H55.31v3.78H17.94S0,26.5,0,54.78,15.66,82.06,15.66,82.06H25V68.94s-.5-15.66,15.41-15.66H66.94s14.9.24,14.9-14.4V14.66S84.11,0,54.81,0ZM40.06,8.47a4.81,4.81,0,1,1-4.81,4.81A4.81,4.81,0,0,1,40.06,8.47Z"/><path id="path8620" class="pythonFill-2" d="M55.61,109.85c28,0,26.28-12.16,26.28-12.16l0-12.59H55.11V81.31H92.48s17.94,2,17.94-26.25S94.76,27.78,94.76,27.78H85.42V40.91S85.92,56.56,70,56.56H43.48S28.58,56.32,28.58,71V95.19S26.31,109.85,55.61,109.85Zm14.75-8.47a4.82,4.82,0,1,1,4.81-4.82A4.81,4.81,0,0,1,70.36,101.38Z"/></g></g></svg>