<svg id="Layer_1" data-name="Layer 1" xmlns="http://www.w3.org/2000/svg" viewBox="0 0 78.58 74.6"><defs><style>.reduxFill-1{fill:#764abc;}</style></defs><title>redux</title><path class="reduxFill-1" d="M65.6,65.4A5.62,5.62,0,0,0,65,54.2h-.2A5.59,5.59,0,0,0,59.4,60,5.74,5.74,0,0,0,61,63.7c-3.4,6.7-8.6,11.6-16.4,15.7a27,27,0,0,1-16.3,3.1c-4.5-.6-8-2.6-10.2-5.9a14.69,14.69,0,0,1-.8-15.5,23.54,23.54,0,0,1,6.8-8c-.4-1.3-1-3.5-1.3-5.1C8.3,58.5,9.8,72.7,14.2,79.4c3.3,5,10,8.1,17.4,8.1a24.58,24.58,0,0,0,6-.7A38.38,38.38,0,0,0,65.6,65.4Z" transform="translate(-11.15 -13.3)"/><path class="reduxFill-1" d="M83.2,53c-7.6-8.9-18.8-13.8-31.6-13.8H50a5.49,5.49,0,0,0-4.9-3h-.2a5.6,5.6,0,0,0,.2,11.2h.2A5.63,5.63,0,0,0,50.2,44H52a38.11,38.11,0,0,1,21.3,6.5A26.79,26.79,0,0,1,83.9,63.3a13.86,13.86,0,0,1-.2,11.8A14.68,14.68,0,0,1,70,83.3a25.58,25.58,0,0,1-9.8-2.1c-1.1,1-3.1,2.6-4.5,3.6a30.87,30.87,0,0,0,12.9,3.1c9.6,0,16.7-5.3,19.4-10.6C90.9,71.5,90.7,61.5,83.2,53Z" transform="translate(-11.15 -13.3)"/><path class="reduxFill-1" d="M32.4,67.1A5.62,5.62,0,0,0,38,72.5h.2A5.6,5.6,0,0,0,38,61.3h-.2a1.7,1.7,0,0,0-.7.1,36.64,36.64,0,0,1-5.2-22.2,26.83,26.83,0,0,1,5.9-15.5c2.9-3.7,8.5-5.5,12.3-5.6,10.6-.2,15.1,13,15.4,18.3,1.3.3,3.5,1,5,1.5C69.3,21.7,59.3,13.3,49.7,13.3c-9,0-17.3,6.5-20.6,16.1-4.6,12.8-1.6,25.1,4,34.8A4.49,4.49,0,0,0,32.4,67.1Z" transform="translate(-11.15 -13.3)"/></svg>