<svg id="Layer_1" data-name="Layer 1" xmlns="http://www.w3.org/2000/svg" xmlns:xlink="http://www.w3.org/1999/xlink" viewBox="0 0 20 24"><defs><style>.cls-1{fill:#fafafa;}.cls-2{fill:url(#radial-gradient);}.cls-3{fill:url(#radial-gradient-2);}.cls-4{fill:url(#linear-gradient);}</style><radialGradient id="radial-gradient" cx="-82.31" cy="-122.96" r="1.57" gradientTransform="matrix(1.13, 0, 0, -0.86, 98.24, -94.1)" gradientUnits="userSpaceOnUse"><stop offset="0" stop-color="#ef8886" stop-opacity="0.5"/><stop offset="0.15" stop-color="#f0908e" stop-opacity="0.43"/><stop offset="0.38" stop-color="#f3a7a5" stop-opacity="0.31"/><stop offset="0.66" stop-color="#f8cbca" stop-opacity="0.17"/><stop offset="0.99" stop-color="#fffefe" stop-opacity="0"/><stop offset="1" stop-color="#fff" stop-opacity="0"/></radialGradient><radialGradient id="radial-gradient-2" cx="-73.26" cy="-122.96" r="1.57" xlink:href="#radial-gradient"/><linearGradient id="linear-gradient" x1="1.38" y1="19.47" x2="21.8" y2="9.95" gradientTransform="matrix(1, 0, 0, -1, 0, 26)" gradientUnits="userSpaceOnUse"><stop offset="0" stop-color="#fff" stop-opacity="0.2"/><stop offset="1" stop-color="#fff" stop-opacity="0"/></linearGradient></defs><title>avatar</title><path d="M21.1,2.92A17.81,17.81,0,0,0,12.32.48,17.73,17.73,0,0,0,3.55,2.92,2.48,2.48,0,0,0,2.32,5.07v8.41c0,3.89,4.52,9.36,9.25,9.92a4.8,4.8,0,0,0,.31.8.49.49,0,0,0,.44.28.5.5,0,0,0,.45-.28,5.47,5.47,0,0,0,.31-.8c4.73-.56,9.24-6,9.24-9.92V5.07A2.49,2.49,0,0,0,21.1,2.92Z" transform="translate(-2.32 -0.48)"/><path class="cls-1" d="M21.32,13.38c0,3.34-3.94,8.17-8,8.89a2.55,2.55,0,0,0,0-.39,4.18,4.18,0,0,0-.42-2l.37-.74a.48.48,0,0,0,0-.48.5.5,0,0,0-.43-.24h-1a.49.49,0,0,0-.42.24.48.48,0,0,0,0,.48l.37.74a4.12,4.12,0,0,0-.43,2,2.56,2.56,0,0,0,0,.39c-4.09-.72-8-5.55-8-8.89V5a1.48,1.48,0,0,1,.73-1.28,16.76,16.76,0,0,1,8.27-2.31A16.77,16.77,0,0,1,20.6,3.69,1.49,1.49,0,0,1,21.32,5Z" transform="translate(-2.32 -0.48)"/><path d="M6.47,9.12a.53.53,0,0,0-.15.36.51.51,0,0,0,.15.35,2.64,2.64,0,0,0,1.85.65,2.65,2.65,0,0,0,1.86-.65.5.5,0,0,0,.14-.35.52.52,0,0,0-.14-.36,2.72,2.72,0,0,0-1.86-.64A2.7,2.7,0,0,0,6.47,9.12Z" transform="translate(-2.32 -0.48)"/><path d="M14.47,9.12a.53.53,0,0,0-.15.36.51.51,0,0,0,.15.35,2.64,2.64,0,0,0,1.85.65,2.65,2.65,0,0,0,1.86-.65.5.5,0,0,0,.14-.35.52.52,0,0,0-.14-.36,2.72,2.72,0,0,0-1.86-.64A2.7,2.7,0,0,0,14.47,9.12Z" transform="translate(-2.32 -0.48)"/><path d="M4.59,7.41a.49.49,0,0,0,.67-.2s.44-.73,2.06-.73a4.63,4.63,0,0,1,3.1,1.8.51.51,0,0,0,.4.2.48.48,0,0,0,.3-.11.48.48,0,0,0,.1-.69,5.54,5.54,0,0,0-3.9-2.2c-2.24,0-2.88,1.14-2.94,1.27A.5.5,0,0,0,4.59,7.41Z" transform="translate(-2.32 -0.48)"/><path d="M13.82,8.48a.48.48,0,0,0,.4-.2s1.38-1.8,3.1-1.8,2,.68,2.06.73a.5.5,0,0,0,.67.21.5.5,0,0,0,.22-.67c-.06-.13-.7-1.27-2.95-1.27s-3.83,2.11-3.9,2.2a.49.49,0,0,0,.1.69A.5.5,0,0,0,13.82,8.48Z" transform="translate(-2.32 -0.48)"/><path d="M19,10.12a.5.5,0,0,0,0,.7A1.74,1.74,0,0,1,19.32,12a1.35,1.35,0,0,1-1.5,1.5A4.75,4.75,0,0,1,16.05,13a.5.5,0,0,0-.67.22.49.49,0,0,0,.22.67,5.88,5.88,0,0,0,1.92.54l-1,2H14.13L13.41,15a2.37,2.37,0,0,0,.35-.4l.12-.17a.5.5,0,0,0-.06-1,1.11,1.11,0,0,0-.88.58c-.19.28-.3.42-.62.42s-.42-.14-.62-.42a1.08,1.08,0,0,0-.88-.58.53.53,0,0,0-.54.48.45.45,0,0,0,.46.49,1.25,1.25,0,0,1,.15.19,2.79,2.79,0,0,0,.34.4l-.72,1.44H8.13l-1-2a5.89,5.89,0,0,0,1.93-.54.5.5,0,0,0,.22-.67A.5.5,0,0,0,8.6,13a4.76,4.76,0,0,1-1.78.45A1.35,1.35,0,0,1,5.32,12a1.8,1.8,0,0,1,.36-1.16.5.5,0,0,0,0-.7.51.51,0,0,0-.71,0A2.65,2.65,0,0,0,4.32,12,2.31,2.31,0,0,0,6,14.34L7.38,17.2a.49.49,0,0,0,.44.28h3a.5.5,0,0,0,.45-.28l.86-1.72h.38l.87,1.72a.49.49,0,0,0,.44.28h3a.5.5,0,0,0,.45-.28l1.43-2.85A2.32,2.32,0,0,0,20.32,12a2.72,2.72,0,0,0-.64-1.86A.5.5,0,0,0,19,10.12Z" transform="translate(-2.32 -0.48)"/><path d="M11.82,13a.5.5,0,0,0,.5-.5V10a.5.5,0,0,0-.5-.5.5.5,0,0,0-.5.5v2.5A.51.51,0,0,0,11.82,13Z" transform="translate(-2.32 -0.48)"/><ellipse class="cls-2" cx="4.88" cy="11.35" rx="1.78" ry="1.35"/><ellipse class="cls-3" cx="15.15" cy="11.35" rx="1.78" ry="1.35"/><path class="cls-4" d="M21.1,2.92A17.81,17.81,0,0,0,12.32.48,17.73,17.73,0,0,0,3.55,2.92,2.48,2.48,0,0,0,2.32,5.07v8.41c0,3.89,4.52,9.36,9.25,9.92a4.8,4.8,0,0,0,.31.8.49.49,0,0,0,.44.28.5.5,0,0,0,.45-.28,5.47,5.47,0,0,0,.31-.8c4.73-.56,9.24-6,9.24-9.92V5.07A2.49,2.49,0,0,0,21.1,2.92Z" transform="translate(-2.32 -0.48)"/></svg>