<svg id="Layer_1" data-name="Layer 1" xmlns="http://www.w3.org/2000/svg" viewBox="0 0 24 24"><defs><style>.fill-color{fill:none;stroke:#fff;stroke-linecap:round;stroke-linejoin:round;}</style></defs><title>settings</title><g id="Tools_1" data-name="Tools 1"><path class="fill-color" d="M12.5,16A1.5,1.5,0,0,0,11,14.5a1.55,1.55,0,0,0-.43.07l-.72-.72a1.21,1.21,0,0,1,0-1.71l2.29-2.29a1.21,1.21,0,0,1,1.71,0l.72.72a1.55,1.55,0,0,0-.07.43A1.5,1.5,0,0,0,16,12.5a1.55,1.55,0,0,0,.43-.07l6.36,6.36a2.41,2.41,0,0,1,0,3.41h0l-.59.59a2.41,2.41,0,0,1-3.41,0h0l-6.36-6.36A1.55,1.55,0,0,0,12.5,16Z"/><path class="fill-color" d="M10.25,11.75,4,5.5H3.08A1,1,0,0,1,2.21,5L.5,2,2,.5,5,2.21a1,1,0,0,1,.5.87V4l6.25,6.25"/><path class="fill-color" d="M14.87,12l.11-.11a4.85,4.85,0,0,1,3.5-1.35h0a5,5,0,0,0,5-5,5,5,0,0,0-.61-2.34L21.46,5.32A1.55,1.55,0,0,1,20.17,6h-.25a2.85,2.85,0,0,1-2.64-1.79,1.54,1.54,0,0,1,.11-1.37L18.78.54H18.5a5,5,0,0,0-5,5h0A5.17,5.17,0,0,1,12,9.2l-.64.64"/><path class="fill-color" d="M9.84,11.34,1.09,20.1a2,2,0,0,0,0,2.83L1.2,23A2.09,2.09,0,0,0,4,22.8l8-8"/></g></svg>