<?xml version="1.0" encoding="utf-8"?>
<!-- Generator: Adobe Illustrator 23.0.3, SVG Export Plug-In . SVG Version: 6.00 Build 0)  -->
<svg version="1.1" id="Capa_1" xmlns="http://www.w3.org/2000/svg" xmlns:xlink="http://www.w3.org/1999/xlink" x="0px" y="0px"
	 viewBox="0 0 512 512" style="enable-background:new 0 0 512 512;" xml:space="preserve">
<style type="text/css">
	.st0{fill:#828282;}
</style>
<g>
	<g>
		<g>
			<path style="fill:#828282" d="M502,407.1l-56.8-37.8l-50.5-33.6c-9.7-6.5-22.8-4.4-30,4.9l-31.2,40.1c-6.7,8.7-18.8,11.2-28.4,5.9
				c-21.2-11.8-46.2-22.9-101.5-78.2s-66.4-80.3-78.2-101.5c-5.3-9.6-2.8-21.7,5.9-28.4l40.1-31.2c9.2-7.2,11.4-20.3,4.9-30
				l-32.6-48.9L104.9,10C98.3,0,85-3,74.8,3.2L30,30.1C17.9,37.2,9,48.8,5.1,62.3C-7.2,107-9.7,205.6,148.4,363.6
				S405,519.2,449.7,506.9c13.5-3.9,25.1-12.8,32.2-24.9l26.9-44.8C515,427,512,413.7,502,407.1z"/>
			<path style="fill:#828282" d="M291.3,79.4c82.8,0.1,150,67.2,150.1,150.1c0,4.9,4,8.8,8.8,8.8c4.9,0,8.8-4,8.8-8.8
				c-0.1-92.6-75.1-167.6-167.7-167.7c-4.9,0-8.8,4-8.8,8.8C282.5,75.5,286.4,79.4,291.3,79.4z"/>
			<path style="fill:#828282" d="M291.3,132.4c53.6,0.1,97,43.5,97.1,97.1c0,4.9,4,8.8,8.8,8.8c4.9,0,8.8-4,8.8-8.8
				c-0.1-63.3-51.4-114.7-114.8-114.8c-4.9,0-8.8,4-8.8,8.8C282.5,128.5,286.4,132.4,291.3,132.4z"/>
			<path style="fill:#828282" d="M291.3,185.4c24.4,0,44.1,19.8,44.1,44.1c0,4.9,4,8.8,8.8,8.8c4.9,0,8.8-4,8.8-8.8
				c0-34.1-27.7-61.8-61.8-61.8c-4.9,0-8.8,4-8.8,8.8C282.5,181.4,286.4,185.4,291.3,185.4z"/>
		</g>
	</g>
</g>
</svg>
