<?xml version="1.0" encoding="utf-8"?>
<!-- Generator: Adobe Illustrator 23.0.3, SVG Export Plug-In . SVG Version: 6.00 Build 0)  -->
<svg version="1.1" id="Layer_1" xmlns="http://www.w3.org/2000/svg" xmlns:xlink="http://www.w3.org/1999/xlink" x="0px" y="0px"
	 viewBox="0 0 512 512" style="enable-background:new 0 0 512 512;" xml:space="preserve">
<style type="text/css">
	.st0{fill:#828282;}
</style>
<path style="fill:#828282" d="M483.7,0H28.2C12.6,0,0,12.7,0,28.3v455.5C0,499.4,12.7,512,28.3,512h245.2V314H207v-77.5h66.5v-57
	c0-66.1,40.4-102.1,99.4-102.1c28.2,0,52.5,2.1,59.6,3v69.1h-40.7c-32.1,0-38.3,15.2-38.3,37.6v49.4h76.8l-10,77.5h-66.8v198h130.3
	c15.6,0,28.3-12.6,28.3-28.3V28.2C512,12.6,499.3,0,483.7,0z"/>
</svg>
