<svg id="Layer_1" data-name="Layer 1" xmlns="http://www.w3.org/2000/svg" viewBox="0 0 64.48 47.41"><title>close-eye</title><path d="M17.35,45.23,8.29,54.29l1.42,1.42L19.43,46A39.52,39.52,0,0,0,32,48c20.27,0,31.35-14.78,31.81-15.41l.43-.59-.43-.59A41.58,41.58,0,0,0,46.64,18.77l9.07-9.06L54.29,8.29,44.56,18A39.41,39.41,0,0,0,32,16C11.73,16,.65,30.78.19,31.41L-.24,32l.43.59A41.59,41.59,0,0,0,17.35,45.23ZM61.72,32C59.43,34.74,49,46,32,46a37.29,37.29,0,0,1-10.95-1.64l6.05-6A7.91,7.91,0,0,0,32,40a8,8,0,0,0,6.31-12.9l6.75-6.75A41.44,41.44,0,0,1,61.72,32ZM26,32a6,6,0,0,1,9.47-4.89l-8.35,8.36A5.91,5.91,0,0,1,26,32Zm12,0a6,6,0,0,1-6,6,5.91,5.91,0,0,1-3.47-1.12l8.35-8.35A5.91,5.91,0,0,1,38,32ZM32,18a37.29,37.29,0,0,1,11,1.64L36.9,25.69A7.91,7.91,0,0,0,32,24a8,8,0,0,0-6.31,12.9l-6.75,6.75A41.44,41.44,0,0,1,2.28,32C4.57,29.26,15,18,32,18Z" transform="translate(0.24 -8.29)"/></svg>