<svg id="Layer_1" data-name="Layer 1" xmlns="http://www.w3.org/2000/svg" viewBox="0 0 64.48 32"><title>eye</title><path d="M32,48c20.27,0,31.35-14.78,31.81-15.41l.43-.59-.43-.59C63.35,30.78,52.27,16,32,16S.65,30.78.19,31.41L-.24,32l.43.59C.65,33.22,11.73,48,32,48Zm0-30c17,0,27.43,11.26,29.72,14C59.43,34.74,49,46,32,46S4.57,34.74,2.28,32C4.57,29.26,15,18,32,18Z" transform="translate(0.24 -16)"/><path d="M32,40a8,8,0,1,0-8-8A8,8,0,0,0,32,40Zm0-14a6,6,0,1,1-6,6A6,6,0,0,1,32,26Z" transform="translate(0.24 -16)"/></svg>